<svg id="Layer_1" enable-background="new 0 0 64 64" height="512" viewBox="0 0 64 64" width="512" xmlns="http://www.w3.org/2000/svg"><path d="m56.5 15.6-23-12.9c-.9-.5-2-.5-2.9 0l-23 12.9c-1 .5-1.6 1.5-1.6 2.6v27.7c0 1.1.6 2.1 1.5 2.6l23 12.9c.9.5 2 .5 2.9 0l23-12.9c.9-.5 1.5-1.5 1.5-2.6v-27.7c.1-1.1-.5-2.1-1.4-2.6zm-9.5-3.1 2.4 1.3-2.4 1.6zm-8-4.4 4.6 2.6-4.6 2.4zm-2 6.1-3 1.6-1-.5c-.6-.3-1.4-.3-2 .1l-7.1 4.4c-.6.4-.9 1-.9 1.7v3.3l-5-2.8v-4.5l7.1-4.4 1 .5c.6.3 1.3.3 1.9 0l9-4.9zm-12 7.4 7.1-4.4 1 .5c.6.3 1.3.3 1.9 0l10-5.6v4.5l-5.1 3.2-1-.5c-.6-.3-1.4-.3-2 .1l-7.1 4.4c-.6.4-.9 1-.9 1.7v2.6l-4-2.2v-4.3zm7.5 8c-.3.2-.7.2-1 0l-.5-.3v-3.7l7.1-4.4 1 .5c.6.3 1.4.3 2-.1l10-6.4v4zm20.5-13.7 2 1.1-2 1.1zm-21.5-11.5c.3-.2.7-.2 1 0l4 2.3-9.5 5.2-1-.5c-.6-.3-1.4-.3-2 .1l-7.1 4.4c-.6.4-.9 1-.9 1.7v3.3l-7-3.9zm-23 42.3c-.3-.2-.5-.5-.5-.9v-21.2l3.4 1.7c.3.2.6.5.6.9v.9c-1.6.6-2.4 2.3-1.8 3.8.6 1.6 2.3 2.4 3.8 1.8s2.4-2.3 1.8-3.8c-.3-.9-1-1.5-1.8-1.8v-.9c0-1.1-.6-2.2-1.7-2.7l-4.3-2.1v-3.7l22.5 12.6c.1.1.3.1.5.2v10.8l-8.5-4.6c-.3-.2-.5-.5-.5-.9v-2c1.6-.6 2.4-2.3 1.8-3.8s-2.3-2.4-3.8-1.8c-1.6.6-2.4 2.3-1.8 3.8.3.9 1 1.5 1.8 1.8v2c0 1.1.6 2.1 1.6 2.6l9.4 5.1v9.7l-8.5-4.6c-.3-.2-.5-.5-.5-.9v-3.7c0-1.1-.6-2-1.5-2.6l-3.5-2c0-.1 0-.3 0-.4 0-1.7-1.3-3-3-3s-3 1.3-3 3 1.3 3 3 3c.8 0 1.5-.3 2.1-.8l3.5 2.1c.3.2.5.5.5.9v3.7c0 1.1.6 2.1 1.6 2.6l9.4 5.1v2.7zm5.5-15.7c0 .6-.4 1-1 1s-1-.4-1-1 .4-1 1-1 1 .4 1 1zm6 1c0-.6.4-1 1-1s1 .4 1 1-.4 1-1 1-1-.4-1-1zm-5 8c0 .6-.4 1-1 1s-1-.4-1-1 .4-1 1-1 1 .4 1 1zm40.5 6.7-22.5 12.6v-8.7l9.4-5.1c1-.5 1.6-1.5 1.6-2.6v-3.6c0-.4.2-.7.6-.9l4.4-2.2c1.2 1.1 3.1 1.1 4.2-.1s1.1-3.1-.1-4.2-3.1-1.1-4.2.1c-.6.5-.9 1.2-.9 2v.4l-4.4 2.2c-1 .5-1.7 1.5-1.7 2.7v3.6c0 .4-.2.7-.5.9l-8.4 4.5v-9.7l2.9-1.5c1.2 1.1 3.1 1.1 4.2-.1s1.1-3.1-.1-4.2-3.1-1.1-4.2.1c-.5.6-.8 1.3-.8 2.1v.4l-2 1v-4.9c.2 0 .3-.1.5-.2l22.5-12.6v19.7l-4.9 2.5c-1.2-1.1-3.1-1.1-4.2.1s-1.1 3.1.1 4.2 3.1 1.1 4.2-.1c.5-.6.8-1.3.8-2.1 0-.1 0-.2 0-.4l4-2v5.2c0 .4-.2.7-.5.9zm-5.5-12.7c0-.6.4-1 1-1s1 .4 1 1-.4 1-1 1-1-.4-1-1zm-13 1c0-.6.4-1 1-1s1 .4 1 1-.4 1-1 1-1-.4-1-1zm13 8c0 .6-.4 1-1 1s-1-.4-1-1 .4-1 1-1 1 .4 1 1z"/></svg>